<svg width="209" height="48" viewBox="0 0 209 48" fill="none" xmlns="http://www.w3.org/2000/svg">
<path d="M17.5 45.5454C17.8423 45.5454 18.3771 45.4188 18.912 45.145C31.0848 38.8654 35 35.7255 35 28.1606V12.2719C35 10.1014 34.0585 9.40603 32.2616 8.66849C29.7586 7.65701 21.7574 4.79116 19.2757 3.94826C18.698 3.75861 18.099 3.65324 17.5 3.65324C16.901 3.65324 16.3019 3.77968 15.7457 3.94826C13.2427 4.74901 5.24143 7.67809 2.73838 8.66849C0.962713 9.38496 0 10.1014 0 12.2719V28.1606C0 35.7255 4.12897 38.5072 16.088 45.145C16.6442 45.4401 17.1577 45.5454 17.5 45.5454ZM7.85145 25.2946C7.85145 25.0418 7.97981 24.7257 8.21515 24.4518L20.3026 9.51139C21.2225 8.37348 22.7629 9.1321 22.2066 10.5439L18.2274 21.0802H25.6937C26.2713 21.0802 26.6992 21.4805 26.6992 22.0496C26.6992 22.3024 26.5709 22.6186 26.3356 22.8924L14.2482 37.8328C13.3282 38.9707 11.8093 38.2121 12.3441 36.8214L16.3447 26.264H8.85695C8.30073 26.264 7.85145 25.8636 7.85145 25.2946Z" fill="#A555EC"/>
<path d="M43.517 33V15.5455H55.0739V18.5881H47.2074V22.7472H54.3068V25.7898H47.2074V33H43.517ZM62.4418 33.2557C61.1179 33.2557 59.973 32.9744 59.0071 32.4119C58.0469 31.8437 57.3054 31.054 56.7827 30.0426C56.2599 29.0256 55.9986 27.8466 55.9986 26.5057C55.9986 25.1534 56.2599 23.9716 56.7827 22.9602C57.3054 21.9432 58.0469 21.1534 59.0071 20.5909C59.973 20.0227 61.1179 19.7386 62.4418 19.7386C63.7656 19.7386 64.9077 20.0227 65.8679 20.5909C66.8338 21.1534 67.5781 21.9432 68.1009 22.9602C68.6236 23.9716 68.8849 25.1534 68.8849 26.5057C68.8849 27.8466 68.6236 29.0256 68.1009 30.0426C67.5781 31.054 66.8338 31.8437 65.8679 32.4119C64.9077 32.9744 63.7656 33.2557 62.4418 33.2557ZM62.4588 30.4432C63.0611 30.4432 63.5639 30.2727 63.9673 29.9318C64.3707 29.5852 64.6747 29.1136 64.8793 28.517C65.0895 27.9205 65.1946 27.2415 65.1946 26.4801C65.1946 25.7188 65.0895 25.0398 64.8793 24.4432C64.6747 23.8466 64.3707 23.375 63.9673 23.0284C63.5639 22.6818 63.0611 22.5085 62.4588 22.5085C61.8509 22.5085 61.3395 22.6818 60.9247 23.0284C60.5156 23.375 60.206 23.8466 59.9957 24.4432C59.7912 25.0398 59.6889 25.7188 59.6889 26.4801C59.6889 27.2415 59.7912 27.9205 59.9957 28.517C60.206 29.1136 60.5156 29.5852 60.9247 29.9318C61.3395 30.2727 61.8509 30.4432 62.4588 30.4432ZM77.1605 33.2557C75.8366 33.2557 74.6918 32.9744 73.7259 32.4119C72.7656 31.8437 72.0241 31.054 71.5014 30.0426C70.9787 29.0256 70.7173 27.8466 70.7173 26.5057C70.7173 25.1534 70.9787 23.9716 71.5014 22.9602C72.0241 21.9432 72.7656 21.1534 73.7259 20.5909C74.6918 20.0227 75.8366 19.7386 77.1605 19.7386C78.4844 19.7386 79.6264 20.0227 80.5866 20.5909C81.5526 21.1534 82.2969 21.9432 82.8196 22.9602C83.3423 23.9716 83.6037 25.1534 83.6037 26.5057C83.6037 27.8466 83.3423 29.0256 82.8196 30.0426C82.2969 31.054 81.5526 31.8437 80.5866 32.4119C79.6264 32.9744 78.4844 33.2557 77.1605 33.2557ZM77.1776 30.4432C77.7798 30.4432 78.2827 30.2727 78.6861 29.9318C79.0895 29.5852 79.3935 29.1136 79.598 28.517C79.8082 27.9205 79.9134 27.2415 79.9134 26.4801C79.9134 25.7188 79.8082 25.0398 79.598 24.4432C79.3935 23.8466 79.0895 23.375 78.6861 23.0284C78.2827 22.6818 77.7798 22.5085 77.1776 22.5085C76.5696 22.5085 76.0582 22.6818 75.6435 23.0284C75.2344 23.375 74.9247 23.8466 74.7145 24.4432C74.5099 25.0398 74.4077 25.7188 74.4077 26.4801C74.4077 27.2415 74.5099 27.9205 74.7145 28.517C74.9247 29.1136 75.2344 29.5852 75.6435 29.9318C76.0582 30.2727 76.5696 30.4432 77.1776 30.4432ZM90.7884 33.2131C89.794 33.2131 88.8935 32.9574 88.0866 32.446C87.2855 31.929 86.6491 31.1705 86.1776 30.1705C85.7116 29.1648 85.4787 27.9318 85.4787 26.4716C85.4787 24.9716 85.7202 23.7244 86.2031 22.7301C86.6861 21.7301 87.3281 20.983 88.1293 20.4886C88.9361 19.9886 89.8196 19.7386 90.7798 19.7386C91.5128 19.7386 92.1236 19.8636 92.6122 20.1136C93.1065 20.358 93.5043 20.6648 93.8054 21.0341C94.1122 21.3977 94.3452 21.7557 94.5043 22.108H94.6151V15.5455H98.2372V33H94.6577V30.9034H94.5043C94.3338 31.267 94.0923 31.6278 93.7798 31.9858C93.473 32.3381 93.0724 32.6307 92.5781 32.8636C92.0895 33.0966 91.4929 33.2131 90.7884 33.2131ZM91.9389 30.3239C92.5241 30.3239 93.0185 30.1648 93.4219 29.8466C93.831 29.5227 94.1435 29.071 94.3594 28.4915C94.581 27.9119 94.6918 27.233 94.6918 26.4545C94.6918 25.6761 94.5838 25 94.3679 24.4261C94.152 23.8523 93.8395 23.4091 93.4304 23.0966C93.0213 22.7841 92.5241 22.6278 91.9389 22.6278C91.3423 22.6278 90.8395 22.7898 90.4304 23.1136C90.0213 23.4375 89.7116 23.8864 89.5014 24.4602C89.2912 25.0341 89.1861 25.6989 89.1861 26.4545C89.1861 27.2159 89.2912 27.8892 89.5014 28.4744C89.7173 29.054 90.027 29.5085 90.4304 29.8381C90.8395 30.1619 91.3423 30.3239 91.9389 30.3239Z" fill="#343434"/>
<path d="M113.033 33H106.845V15.5455H113.084C114.839 15.5455 116.351 15.8949 117.618 16.5938C118.885 17.2869 119.859 18.2841 120.541 19.5852C121.229 20.8864 121.572 22.4432 121.572 24.2557C121.572 26.0739 121.229 27.6364 120.541 28.9432C119.859 30.25 118.879 31.2528 117.601 31.9517C116.328 32.6506 114.805 33 113.033 33ZM110.536 29.8381H112.879C113.97 29.8381 114.888 29.6449 115.632 29.2585C116.382 28.8665 116.945 28.2614 117.32 27.4432C117.7 26.6193 117.891 25.5568 117.891 24.2557C117.891 22.9659 117.7 21.9119 117.32 21.0938C116.945 20.2756 116.385 19.6733 115.641 19.2869C114.896 18.9006 113.979 18.7074 112.888 18.7074H110.536V29.8381ZM130.204 33.2557C128.857 33.2557 127.698 32.983 126.727 32.4375C125.761 31.8864 125.016 31.108 124.494 30.1023C123.971 29.0909 123.71 27.8949 123.71 26.5142C123.71 25.1676 123.971 23.9858 124.494 22.9688C125.016 21.9517 125.752 21.1591 126.701 20.5909C127.656 20.0227 128.775 19.7386 130.059 19.7386C130.923 19.7386 131.727 19.8778 132.471 20.1562C133.221 20.429 133.874 20.8409 134.431 21.392C134.994 21.9432 135.431 22.6364 135.744 23.4716C136.056 24.3011 136.212 25.2727 136.212 26.3864V27.3835H125.158V25.1335H132.795C132.795 24.6108 132.681 24.1477 132.454 23.7443C132.227 23.3409 131.911 23.0256 131.508 22.7983C131.11 22.5653 130.647 22.4489 130.119 22.4489C129.567 22.4489 129.079 22.5767 128.653 22.8324C128.232 23.0824 127.903 23.4205 127.664 23.8466C127.425 24.267 127.303 24.7358 127.298 25.2528V27.392C127.298 28.0398 127.417 28.5994 127.656 29.071C127.9 29.5426 128.244 29.9062 128.687 30.1619C129.13 30.4176 129.656 30.5455 130.263 30.5455C130.667 30.5455 131.036 30.4886 131.371 30.375C131.707 30.2614 131.994 30.0909 132.232 29.8636C132.471 29.6364 132.653 29.358 132.778 29.0284L136.136 29.25C135.965 30.0568 135.616 30.7614 135.087 31.3636C134.565 31.9602 133.888 32.4261 133.059 32.7614C132.235 33.0909 131.283 33.2557 130.204 33.2557ZM142.212 15.5455V33H138.582V15.5455H142.212ZM145.121 33V19.9091H148.751V33H145.121ZM146.945 18.2216C146.405 18.2216 145.942 18.0426 145.555 17.6847C145.175 17.321 144.984 16.8864 144.984 16.3807C144.984 15.8807 145.175 15.4517 145.555 15.0938C145.942 14.7301 146.405 14.5483 146.945 14.5483C147.484 14.5483 147.945 14.7301 148.325 15.0938C148.712 15.4517 148.905 15.8807 148.905 16.3807C148.905 16.8864 148.712 17.321 148.325 17.6847C147.945 18.0426 147.484 18.2216 146.945 18.2216ZM163.864 19.9091L159.288 33H155.197L150.62 19.9091H154.455L157.174 29.2756H157.31L160.021 19.9091H163.864ZM171.266 33.2557C169.92 33.2557 168.761 32.983 167.789 32.4375C166.823 31.8864 166.079 31.108 165.556 30.1023C165.033 29.0909 164.772 27.8949 164.772 26.5142C164.772 25.1676 165.033 23.9858 165.556 22.9688C166.079 21.9517 166.815 21.1591 167.763 20.5909C168.718 20.0227 169.837 19.7386 171.121 19.7386C171.985 19.7386 172.789 19.8778 173.533 20.1562C174.283 20.429 174.937 20.8409 175.494 21.392C176.056 21.9432 176.494 22.6364 176.806 23.4716C177.119 24.3011 177.275 25.2727 177.275 26.3864V27.3835H166.221V25.1335H173.857C173.857 24.6108 173.744 24.1477 173.516 23.7443C173.289 23.3409 172.974 23.0256 172.57 22.7983C172.173 22.5653 171.71 22.4489 171.181 22.4489C170.63 22.4489 170.141 22.5767 169.715 22.8324C169.295 23.0824 168.965 23.4205 168.727 23.8466C168.488 24.267 168.366 24.7358 168.36 25.2528V27.392C168.36 28.0398 168.479 28.5994 168.718 29.071C168.962 29.5426 169.306 29.9062 169.749 30.1619C170.192 30.4176 170.718 30.5455 171.326 30.5455C171.729 30.5455 172.099 30.4886 172.434 30.375C172.769 30.2614 173.056 30.0909 173.295 29.8636C173.533 29.6364 173.715 29.358 173.84 29.0284L177.198 29.25C177.028 30.0568 176.678 30.7614 176.15 31.3636C175.627 31.9602 174.951 32.4261 174.121 32.7614C173.298 33.0909 172.346 33.2557 171.266 33.2557ZM179.644 33V19.9091H183.164V22.1932H183.3C183.539 21.3807 183.94 20.767 184.502 20.3523C185.065 19.9318 185.712 19.7216 186.445 19.7216C186.627 19.7216 186.823 19.733 187.033 19.7557C187.244 19.7784 187.428 19.8097 187.587 19.8494V23.071C187.417 23.0199 187.181 22.9744 186.88 22.9347C186.579 22.8949 186.303 22.875 186.053 22.875C185.519 22.875 185.042 22.9915 184.621 23.2244C184.207 23.4517 183.877 23.7699 183.633 24.179C183.394 24.5881 183.275 25.0597 183.275 25.5938V33H179.644ZM192.104 37.9091C191.644 37.9091 191.212 37.8722 190.809 37.7983C190.411 37.7301 190.082 37.642 189.82 37.5341L190.638 34.8239C191.065 34.9545 191.448 35.0256 191.789 35.0369C192.136 35.0483 192.434 34.9688 192.684 34.7983C192.94 34.6278 193.147 34.3381 193.306 33.929L193.519 33.375L188.823 19.9091H192.641L195.352 29.5227H195.488L198.224 19.9091H202.067L196.979 34.4148C196.735 35.1193 196.403 35.733 195.982 36.2557C195.567 36.7841 195.042 37.1903 194.406 37.4744C193.769 37.7642 193.002 37.9091 192.104 37.9091Z" fill="#A555EC"/>
</svg>
