<svg width="28" height="35" viewBox="0 0 28 35" fill="none" xmlns="http://www.w3.org/2000/svg">
<g clip-path="url(#clip0_620_19691)">
<path d="M14 35C14.2738 35 14.7017 34.8959 15.1296 34.6706C24.8679 29.5046 28 26.9217 28 20.6983V7.62753C28 5.842 27.2468 5.26993 25.8093 4.66319C23.8068 3.8311 17.4059 1.4735 15.4205 0.780094C14.9584 0.624076 14.4792 0.537399 14 0.537399C13.5208 0.537399 13.0416 0.641412 12.5966 0.780094C10.5941 1.43883 4.19314 3.84843 2.19071 4.66319C0.77017 5.25259 0 5.842 0 7.62753V20.6983C0 26.9217 3.30318 29.21 12.8704 34.6706C13.3154 34.9133 13.7261 35 14 35ZM6.28116 18.3407C6.28116 18.1327 6.38385 17.8726 6.57212 17.6473L16.242 5.3566C16.978 4.4205 18.2103 5.04458 17.7653 6.20603L14.5819 14.8737H20.555C21.0171 14.8737 21.3594 15.203 21.3594 15.6712C21.3594 15.8792 21.2567 16.1392 21.0685 16.3645L11.3985 28.6552C10.6626 29.5913 9.44742 28.9672 9.87529 27.8231L13.0758 19.1382H7.08556C6.64059 19.1382 6.28116 18.8087 6.28116 18.3407Z" fill="white"/>
</g>
<defs>
<clipPath id="clip0_620_19691">
<rect width="28" height="35" fill="white"/>
</clipPath>
</defs>
</svg>
