<svg width="35" height="45" viewBox="0 0 35 45" fill="none" xmlns="http://www.w3.org/2000/svg">
<path d="M17.5 42.5454C17.8423 42.5454 18.3771 42.4188 18.912 42.145C31.0848 35.8654 35 32.7255 35 25.1606V9.27189C35 7.10143 34.0585 6.40603 32.2616 5.66849C29.7586 4.65701 21.7574 1.79116 19.2757 0.94826C18.698 0.758607 18.099 0.653244 17.5 0.653244C16.901 0.653244 16.3019 0.77968 15.7457 0.94826C13.2427 1.74901 5.24143 4.67809 2.73838 5.66849C0.962713 6.38496 0 7.10143 0 9.27189V25.1606C0 32.7255 4.12897 35.5072 16.088 42.145C16.6442 42.4401 17.1577 42.5454 17.5 42.5454ZM7.85145 22.2946C7.85145 22.0418 7.97981 21.7257 8.21515 21.4518L20.3026 6.51139C21.2225 5.37348 22.7629 6.1321 22.2066 7.54394L18.2274 18.0802H25.6937C26.2713 18.0802 26.6992 18.4805 26.6992 19.0496C26.6992 19.3024 26.5709 19.6186 26.3356 19.8924L14.2482 34.8328C13.3282 35.9707 11.8093 35.2121 12.3441 33.8214L16.3447 23.264H8.85695C8.30073 23.264 7.85145 22.8636 7.85145 22.2946Z" fill="#A555EC"/>
</svg>
